<mxfile host="app.diagrams.net" modified="2021-08-30T15:33:20.687Z" agent="5.0 (X11; Linux x86_64) AppleWebKit/537.36 (KHTML, like Gecko) Chrome/92.0.4515.159 Safari/537.36" etag="gdLePpjxDJSChC95uWUg" version="15.0.3" type="github">
  <diagram name="Page-1" id="9f46799a-70d6-7492-0946-bef42562c5a5">
    <mxGraphModel dx="805" dy="466" grid="1" gridSize="10" guides="1" tooltips="1" connect="1" arrows="1" fold="1" page="1" pageScale="1" pageWidth="1100" pageHeight="850" background="none" math="0" shadow="0">
      <root>
        <mxCell id="0" />
        <mxCell id="1" parent="0" />
        <mxCell id="3UPYBKitPrsgGl5lzxsW-54" value="parallel execution" style="rounded=0;whiteSpace=wrap;html=1;shadow=0;fontSize=7;align=center;verticalAlign=top;fillOpacity=100;labelBorderColor=none;labelPadding=0;fillColor=#f8cecc;strokeColor=#b85450;" vertex="1" parent="1">
          <mxGeometry x="275" y="110" width="170" height="230" as="geometry" />
        </mxCell>
        <mxCell id="78961159f06e98e8-17" value="main.rs&lt;br style=&quot;font-size: 7px;&quot;&gt;" style="swimlane;html=1;fontStyle=1;align=center;verticalAlign=top;childLayout=stackLayout;horizontal=1;startSize=26;horizontalStack=0;resizeParent=1;resizeLast=0;collapsible=1;marginBottom=0;swimlaneFillColor=#ffffff;rounded=0;shadow=0;comic=0;labelBackgroundColor=none;strokeWidth=1;fillColor=none;fontFamily=Verdana;fontSize=7;" parent="1" vertex="1">
          <mxGeometry x="60" y="40" width="160" height="227" as="geometry" />
        </mxCell>
        <mxCell id="78961159f06e98e8-21" value="struct Args =&amp;gt; get terminal parameter&amp;nbsp;" style="text;html=1;strokeColor=none;fillColor=none;align=left;verticalAlign=top;spacingLeft=4;spacingRight=4;whiteSpace=wrap;overflow=hidden;rotatable=0;points=[[0,0.5],[1,0.5]];portConstraint=eastwest;fontSize=7;" parent="78961159f06e98e8-17" vertex="1">
          <mxGeometry y="26" width="160" height="26" as="geometry" />
        </mxCell>
        <mxCell id="3UPYBKitPrsgGl5lzxsW-34" value="" style="line;html=1;strokeWidth=1;fillColor=none;align=left;verticalAlign=middle;spacingTop=-1;spacingLeft=3;spacingRight=3;rotatable=0;labelPosition=right;points=[];portConstraint=eastwest;fontSize=7;" vertex="1" parent="78961159f06e98e8-17">
          <mxGeometry y="52" width="160" height="8" as="geometry" />
        </mxCell>
        <mxCell id="3UPYBKitPrsgGl5lzxsW-35" value="main&lt;br&gt;" style="text;html=1;strokeColor=none;fillColor=none;align=center;verticalAlign=middle;spacingLeft=4;spacingRight=4;whiteSpace=wrap;overflow=hidden;rotatable=0;points=[[0,0.5],[1,0.5]];portConstraint=eastwest;fontSize=7;" vertex="1" parent="78961159f06e98e8-17">
          <mxGeometry y="60" width="160" height="11" as="geometry" />
        </mxCell>
        <mxCell id="3UPYBKitPrsgGl5lzxsW-33" value="" style="line;html=1;strokeWidth=1;fillColor=none;align=left;verticalAlign=middle;spacingTop=-1;spacingLeft=3;spacingRight=3;rotatable=0;labelPosition=right;points=[];portConstraint=eastwest;fontSize=7;" vertex="1" parent="78961159f06e98e8-17">
          <mxGeometry y="71" width="160" height="8" as="geometry" />
        </mxCell>
        <mxCell id="78961159f06e98e8-20" value="&lt;font style=&quot;font-size: 7px;&quot;&gt;&lt;font style=&quot;font-size: 7px;&quot;&gt;pretty_env_logger ＝&amp;gt; get pretty logge&lt;/font&gt;r&lt;/font&gt;" style="text;html=1;strokeColor=none;fillColor=none;align=left;verticalAlign=top;spacingLeft=4;spacingRight=4;whiteSpace=wrap;overflow=hidden;rotatable=0;points=[[0,0.5],[1,0.5]];portConstraint=eastwest;fontSize=7;" parent="78961159f06e98e8-17" vertex="1">
          <mxGeometry y="79" width="160" height="26" as="geometry" />
        </mxCell>
        <mxCell id="3UPYBKitPrsgGl5lzxsW-29" value="Arc::new" style="text;html=1;strokeColor=none;fillColor=none;align=left;verticalAlign=top;spacingLeft=4;spacingRight=4;whiteSpace=wrap;overflow=hidden;rotatable=0;points=[[0,0.5],[1,0.5]];portConstraint=eastwest;fontSize=7;" vertex="1" parent="78961159f06e98e8-17">
          <mxGeometry y="105" width="160" height="26" as="geometry" />
        </mxCell>
        <mxCell id="78961159f06e98e8-27" value="config::Config::open" style="text;html=1;strokeColor=none;fillColor=none;align=left;verticalAlign=top;spacingLeft=4;spacingRight=4;whiteSpace=wrap;overflow=hidden;rotatable=0;points=[[0,0.5],[1,0.5]];portConstraint=eastwest;fontSize=7;" parent="78961159f06e98e8-17" vertex="1">
          <mxGeometry y="131" width="160" height="26" as="geometry" />
        </mxCell>
        <mxCell id="3UPYBKitPrsgGl5lzxsW-30" value="Arc::new" style="text;html=1;strokeColor=none;fillColor=none;align=left;verticalAlign=top;spacingLeft=4;spacingRight=4;whiteSpace=wrap;overflow=hidden;rotatable=0;points=[[0,0.5],[1,0.5]];portConstraint=eastwest;fontSize=7;" vertex="1" parent="78961159f06e98e8-17">
          <mxGeometry y="157" width="160" height="26" as="geometry" />
        </mxCell>
        <mxCell id="3UPYBKitPrsgGl5lzxsW-31" value="wayside_filter::start =&amp;gt; start run wayside filter&lt;br&gt;" style="text;html=1;strokeColor=none;fillColor=none;align=left;verticalAlign=top;spacingLeft=4;spacingRight=4;whiteSpace=wrap;overflow=hidden;rotatable=0;points=[[0,0.5],[1,0.5]];portConstraint=eastwest;fontSize=7;" vertex="1" parent="78961159f06e98e8-17">
          <mxGeometry y="183" width="160" height="26" as="geometry" />
        </mxCell>
        <mxCell id="3UPYBKitPrsgGl5lzxsW-43" style="edgeStyle=orthogonalEdgeStyle;rounded=0;orthogonalLoop=1;jettySize=auto;html=1;entryX=1;entryY=0.5;entryDx=0;entryDy=0;fontSize=7;exitX=1;exitY=0.5;exitDx=0;exitDy=0;" edge="1" parent="1" source="3UPYBKitPrsgGl5lzxsW-37" target="3UPYBKitPrsgGl5lzxsW-42">
          <mxGeometry relative="1" as="geometry">
            <Array as="points">
              <mxPoint x="470" y="79" />
              <mxPoint x="470" y="160" />
            </Array>
          </mxGeometry>
        </mxCell>
        <mxCell id="3UPYBKitPrsgGl5lzxsW-1" value="lib.rs" style="swimlane;html=1;fontStyle=1;align=center;verticalAlign=top;childLayout=stackLayout;horizontal=1;startSize=26;horizontalStack=0;resizeParent=1;resizeLast=0;collapsible=1;marginBottom=0;swimlaneFillColor=#ffffff;rounded=0;shadow=0;comic=0;labelBackgroundColor=none;strokeWidth=1;fillColor=none;fontFamily=Verdana;fontSize=7;" vertex="1" parent="1">
          <mxGeometry x="280" y="40" width="160" height="60" as="geometry" />
        </mxCell>
        <mxCell id="3UPYBKitPrsgGl5lzxsW-36" value="" style="line;html=1;strokeWidth=1;fillColor=none;align=left;verticalAlign=middle;spacingTop=-1;spacingLeft=3;spacingRight=3;rotatable=0;labelPosition=right;points=[];portConstraint=eastwest;fontSize=7;" vertex="1" parent="3UPYBKitPrsgGl5lzxsW-1">
          <mxGeometry y="26" width="160" height="8" as="geometry" />
        </mxCell>
        <mxCell id="3UPYBKitPrsgGl5lzxsW-37" value="start" style="text;html=1;strokeColor=none;fillColor=none;align=center;verticalAlign=middle;spacingLeft=4;spacingRight=4;whiteSpace=wrap;overflow=hidden;rotatable=0;points=[[0,0.5],[1,0.5]];portConstraint=eastwest;fontSize=7;" vertex="1" parent="3UPYBKitPrsgGl5lzxsW-1">
          <mxGeometry y="34" width="160" height="11" as="geometry" />
        </mxCell>
        <mxCell id="3UPYBKitPrsgGl5lzxsW-38" value="" style="line;html=1;strokeWidth=1;fillColor=none;align=left;verticalAlign=middle;spacingTop=-1;spacingLeft=3;spacingRight=3;rotatable=0;labelPosition=right;points=[];portConstraint=eastwest;fontSize=7;" vertex="1" parent="3UPYBKitPrsgGl5lzxsW-1">
          <mxGeometry y="45" width="160" height="8" as="geometry" />
        </mxCell>
        <mxCell id="3UPYBKitPrsgGl5lzxsW-10" value="graph.rs&lt;br style=&quot;font-size: 7px;&quot;&gt;" style="swimlane;html=1;fontStyle=1;align=center;verticalAlign=top;childLayout=stackLayout;horizontal=1;startSize=26;horizontalStack=0;resizeParent=1;resizeLast=0;collapsible=1;marginBottom=0;swimlaneFillColor=#ffffff;rounded=0;shadow=0;comic=0;labelBackgroundColor=none;strokeWidth=1;fillColor=none;fontFamily=Verdana;fontSize=7;" vertex="1" parent="1">
          <mxGeometry x="400" y="450" width="160" height="227" as="geometry" />
        </mxCell>
        <mxCell id="3UPYBKitPrsgGl5lzxsW-11" value="+ field: type" style="text;html=1;strokeColor=none;fillColor=none;align=left;verticalAlign=top;spacingLeft=4;spacingRight=4;whiteSpace=wrap;overflow=hidden;rotatable=0;points=[[0,0.5],[1,0.5]];portConstraint=eastwest;fontSize=7;" vertex="1" parent="3UPYBKitPrsgGl5lzxsW-10">
          <mxGeometry y="26" width="160" height="26" as="geometry" />
        </mxCell>
        <mxCell id="3UPYBKitPrsgGl5lzxsW-12" value="+ field: type" style="text;html=1;strokeColor=none;fillColor=none;align=left;verticalAlign=top;spacingLeft=4;spacingRight=4;whiteSpace=wrap;overflow=hidden;rotatable=0;points=[[0,0.5],[1,0.5]];portConstraint=eastwest;fontSize=7;" vertex="1" parent="3UPYBKitPrsgGl5lzxsW-10">
          <mxGeometry y="52" width="160" height="26" as="geometry" />
        </mxCell>
        <mxCell id="3UPYBKitPrsgGl5lzxsW-13" value="+ field: type" style="text;html=1;strokeColor=none;fillColor=none;align=left;verticalAlign=top;spacingLeft=4;spacingRight=4;whiteSpace=wrap;overflow=hidden;rotatable=0;points=[[0,0.5],[1,0.5]];portConstraint=eastwest;fontSize=7;" vertex="1" parent="3UPYBKitPrsgGl5lzxsW-10">
          <mxGeometry y="78" width="160" height="26" as="geometry" />
        </mxCell>
        <mxCell id="3UPYBKitPrsgGl5lzxsW-14" value="+ field: type" style="text;html=1;strokeColor=none;fillColor=none;align=left;verticalAlign=top;spacingLeft=4;spacingRight=4;whiteSpace=wrap;overflow=hidden;rotatable=0;points=[[0,0.5],[1,0.5]];portConstraint=eastwest;fontSize=7;" vertex="1" parent="3UPYBKitPrsgGl5lzxsW-10">
          <mxGeometry y="104" width="160" height="26" as="geometry" />
        </mxCell>
        <mxCell id="3UPYBKitPrsgGl5lzxsW-15" value="+ field: type" style="text;html=1;strokeColor=none;fillColor=none;align=left;verticalAlign=top;spacingLeft=4;spacingRight=4;whiteSpace=wrap;overflow=hidden;rotatable=0;points=[[0,0.5],[1,0.5]];portConstraint=eastwest;fontSize=7;" vertex="1" parent="3UPYBKitPrsgGl5lzxsW-10">
          <mxGeometry y="130" width="160" height="26" as="geometry" />
        </mxCell>
        <mxCell id="3UPYBKitPrsgGl5lzxsW-16" value="" style="line;html=1;strokeWidth=1;fillColor=none;align=left;verticalAlign=middle;spacingTop=-1;spacingLeft=3;spacingRight=3;rotatable=0;labelPosition=right;points=[];portConstraint=eastwest;fontSize=7;" vertex="1" parent="3UPYBKitPrsgGl5lzxsW-10">
          <mxGeometry y="156" width="160" height="8" as="geometry" />
        </mxCell>
        <mxCell id="3UPYBKitPrsgGl5lzxsW-17" value="+ method(type): type" style="text;html=1;strokeColor=none;fillColor=none;align=left;verticalAlign=top;spacingLeft=4;spacingRight=4;whiteSpace=wrap;overflow=hidden;rotatable=0;points=[[0,0.5],[1,0.5]];portConstraint=eastwest;fontSize=7;" vertex="1" parent="3UPYBKitPrsgGl5lzxsW-10">
          <mxGeometry y="164" width="160" height="26" as="geometry" />
        </mxCell>
        <mxCell id="3UPYBKitPrsgGl5lzxsW-18" value="+ method(type): type" style="text;html=1;strokeColor=none;fillColor=none;align=left;verticalAlign=top;spacingLeft=4;spacingRight=4;whiteSpace=wrap;overflow=hidden;rotatable=0;points=[[0,0.5],[1,0.5]];portConstraint=eastwest;fontSize=7;" vertex="1" parent="3UPYBKitPrsgGl5lzxsW-10">
          <mxGeometry y="190" width="160" height="26" as="geometry" />
        </mxCell>
        <mxCell id="3UPYBKitPrsgGl5lzxsW-19" value="flow_worker.rs&lt;br style=&quot;font-size: 7px;&quot;&gt;" style="swimlane;html=1;fontStyle=1;align=center;verticalAlign=top;childLayout=stackLayout;horizontal=1;startSize=26;horizontalStack=0;resizeParent=1;resizeLast=0;collapsible=1;marginBottom=0;swimlaneFillColor=#ffffff;rounded=0;shadow=0;comic=0;labelBackgroundColor=none;strokeWidth=1;fillColor=none;fontFamily=Verdana;fontSize=7;" vertex="1" parent="1">
          <mxGeometry x="100" y="440" width="160" height="227" as="geometry" />
        </mxCell>
        <mxCell id="3UPYBKitPrsgGl5lzxsW-20" value="+ field: type" style="text;html=1;strokeColor=none;fillColor=none;align=left;verticalAlign=top;spacingLeft=4;spacingRight=4;whiteSpace=wrap;overflow=hidden;rotatable=0;points=[[0,0.5],[1,0.5]];portConstraint=eastwest;fontSize=7;" vertex="1" parent="3UPYBKitPrsgGl5lzxsW-19">
          <mxGeometry y="26" width="160" height="26" as="geometry" />
        </mxCell>
        <mxCell id="3UPYBKitPrsgGl5lzxsW-21" value="+ field: type" style="text;html=1;strokeColor=none;fillColor=none;align=left;verticalAlign=top;spacingLeft=4;spacingRight=4;whiteSpace=wrap;overflow=hidden;rotatable=0;points=[[0,0.5],[1,0.5]];portConstraint=eastwest;fontSize=7;" vertex="1" parent="3UPYBKitPrsgGl5lzxsW-19">
          <mxGeometry y="52" width="160" height="26" as="geometry" />
        </mxCell>
        <mxCell id="3UPYBKitPrsgGl5lzxsW-22" value="+ field: type" style="text;html=1;strokeColor=none;fillColor=none;align=left;verticalAlign=top;spacingLeft=4;spacingRight=4;whiteSpace=wrap;overflow=hidden;rotatable=0;points=[[0,0.5],[1,0.5]];portConstraint=eastwest;fontSize=7;" vertex="1" parent="3UPYBKitPrsgGl5lzxsW-19">
          <mxGeometry y="78" width="160" height="26" as="geometry" />
        </mxCell>
        <mxCell id="3UPYBKitPrsgGl5lzxsW-23" value="+ field: type" style="text;html=1;strokeColor=none;fillColor=none;align=left;verticalAlign=top;spacingLeft=4;spacingRight=4;whiteSpace=wrap;overflow=hidden;rotatable=0;points=[[0,0.5],[1,0.5]];portConstraint=eastwest;fontSize=7;" vertex="1" parent="3UPYBKitPrsgGl5lzxsW-19">
          <mxGeometry y="104" width="160" height="26" as="geometry" />
        </mxCell>
        <mxCell id="3UPYBKitPrsgGl5lzxsW-24" value="+ field: type" style="text;html=1;strokeColor=none;fillColor=none;align=left;verticalAlign=top;spacingLeft=4;spacingRight=4;whiteSpace=wrap;overflow=hidden;rotatable=0;points=[[0,0.5],[1,0.5]];portConstraint=eastwest;fontSize=7;" vertex="1" parent="3UPYBKitPrsgGl5lzxsW-19">
          <mxGeometry y="130" width="160" height="26" as="geometry" />
        </mxCell>
        <mxCell id="3UPYBKitPrsgGl5lzxsW-25" value="" style="line;html=1;strokeWidth=1;fillColor=none;align=left;verticalAlign=middle;spacingTop=-1;spacingLeft=3;spacingRight=3;rotatable=0;labelPosition=right;points=[];portConstraint=eastwest;fontSize=7;" vertex="1" parent="3UPYBKitPrsgGl5lzxsW-19">
          <mxGeometry y="156" width="160" height="8" as="geometry" />
        </mxCell>
        <mxCell id="3UPYBKitPrsgGl5lzxsW-26" value="+ method(type): type" style="text;html=1;strokeColor=none;fillColor=none;align=left;verticalAlign=top;spacingLeft=4;spacingRight=4;whiteSpace=wrap;overflow=hidden;rotatable=0;points=[[0,0.5],[1,0.5]];portConstraint=eastwest;fontSize=7;" vertex="1" parent="3UPYBKitPrsgGl5lzxsW-19">
          <mxGeometry y="164" width="160" height="26" as="geometry" />
        </mxCell>
        <mxCell id="3UPYBKitPrsgGl5lzxsW-27" value="+ method(type): type" style="text;html=1;strokeColor=none;fillColor=none;align=left;verticalAlign=top;spacingLeft=4;spacingRight=4;whiteSpace=wrap;overflow=hidden;rotatable=0;points=[[0,0.5],[1,0.5]];portConstraint=eastwest;fontSize=7;" vertex="1" parent="3UPYBKitPrsgGl5lzxsW-19">
          <mxGeometry y="190" width="160" height="26" as="geometry" />
        </mxCell>
        <mxCell id="3UPYBKitPrsgGl5lzxsW-39" style="edgeStyle=orthogonalEdgeStyle;rounded=0;orthogonalLoop=1;jettySize=auto;html=1;exitX=1;exitY=0.5;exitDx=0;exitDy=0;entryX=0;entryY=0.5;entryDx=0;entryDy=0;fontSize=7;" edge="1" parent="1" source="3UPYBKitPrsgGl5lzxsW-31" target="3UPYBKitPrsgGl5lzxsW-37">
          <mxGeometry relative="1" as="geometry" />
        </mxCell>
        <mxCell id="3UPYBKitPrsgGl5lzxsW-46" style="edgeStyle=orthogonalEdgeStyle;rounded=0;orthogonalLoop=1;jettySize=auto;html=1;entryX=0.5;entryY=0;entryDx=0;entryDy=0;fontSize=7;" edge="1" parent="1" source="3UPYBKitPrsgGl5lzxsW-42" target="3UPYBKitPrsgGl5lzxsW-44">
          <mxGeometry relative="1" as="geometry" />
        </mxCell>
        <mxCell id="3UPYBKitPrsgGl5lzxsW-42" value="set consumer and producer message passing channel" style="rounded=1;whiteSpace=wrap;html=1;shadow=1;fontSize=7;align=center;verticalAlign=middle;" vertex="1" parent="1">
          <mxGeometry x="280" y="140" width="160" height="40" as="geometry" />
        </mxCell>
        <mxCell id="3UPYBKitPrsgGl5lzxsW-47" style="edgeStyle=orthogonalEdgeStyle;rounded=0;orthogonalLoop=1;jettySize=auto;html=1;exitX=0.5;exitY=1;exitDx=0;exitDy=0;entryX=0.5;entryY=0;entryDx=0;entryDy=0;fontSize=7;" edge="1" parent="1" source="3UPYBKitPrsgGl5lzxsW-44" target="3UPYBKitPrsgGl5lzxsW-45">
          <mxGeometry relative="1" as="geometry" />
        </mxCell>
        <mxCell id="3UPYBKitPrsgGl5lzxsW-44" value="start consumer" style="rounded=1;whiteSpace=wrap;html=1;shadow=1;fontSize=7;align=center;verticalAlign=middle;" vertex="1" parent="1">
          <mxGeometry x="280" y="190" width="160" height="20" as="geometry" />
        </mxCell>
        <mxCell id="3UPYBKitPrsgGl5lzxsW-49" style="edgeStyle=orthogonalEdgeStyle;rounded=0;orthogonalLoop=1;jettySize=auto;html=1;entryX=0.5;entryY=0;entryDx=0;entryDy=0;fontSize=7;" edge="1" parent="1" source="3UPYBKitPrsgGl5lzxsW-45" target="3UPYBKitPrsgGl5lzxsW-48">
          <mxGeometry relative="1" as="geometry" />
        </mxCell>
        <mxCell id="3UPYBKitPrsgGl5lzxsW-45" value="start producer" style="rounded=1;whiteSpace=wrap;html=1;shadow=1;fontSize=7;align=center;verticalAlign=middle;" vertex="1" parent="1">
          <mxGeometry x="280" y="220" width="160" height="20" as="geometry" />
        </mxCell>
        <mxCell id="3UPYBKitPrsgGl5lzxsW-51" style="edgeStyle=orthogonalEdgeStyle;rounded=0;orthogonalLoop=1;jettySize=auto;html=1;entryX=0.5;entryY=0;entryDx=0;entryDy=0;fontSize=7;" edge="1" parent="1" source="3UPYBKitPrsgGl5lzxsW-48" target="3UPYBKitPrsgGl5lzxsW-50">
          <mxGeometry relative="1" as="geometry" />
        </mxCell>
        <mxCell id="3UPYBKitPrsgGl5lzxsW-48" value="start flow_worker" style="rounded=1;whiteSpace=wrap;html=1;shadow=1;fontSize=7;align=center;verticalAlign=middle;" vertex="1" parent="1">
          <mxGeometry x="280" y="250" width="160" height="20" as="geometry" />
        </mxCell>
        <mxCell id="3UPYBKitPrsgGl5lzxsW-53" style="edgeStyle=orthogonalEdgeStyle;rounded=0;orthogonalLoop=1;jettySize=auto;html=1;entryX=0.5;entryY=0;entryDx=0;entryDy=0;fontSize=7;" edge="1" parent="1" source="3UPYBKitPrsgGl5lzxsW-50" target="3UPYBKitPrsgGl5lzxsW-52">
          <mxGeometry relative="1" as="geometry" />
        </mxCell>
        <mxCell id="3UPYBKitPrsgGl5lzxsW-50" value="load parameters" style="rounded=1;whiteSpace=wrap;html=1;shadow=1;fontSize=7;align=center;verticalAlign=middle;" vertex="1" parent="1">
          <mxGeometry x="280" y="280" width="160" height="20" as="geometry" />
        </mxCell>
        <mxCell id="3UPYBKitPrsgGl5lzxsW-52" value="wait for all workers(future) to finish" style="rounded=1;whiteSpace=wrap;html=1;shadow=1;fontSize=7;align=center;verticalAlign=middle;" vertex="1" parent="1">
          <mxGeometry x="280" y="310" width="160" height="20" as="geometry" />
        </mxCell>
      </root>
    </mxGraphModel>
  </diagram>
</mxfile>
